<svg width="20" height="20" viewBox="0 0 20 20" fill="none" xmlns="http://www.w3.org/2000/svg">
    <path fill-rule="evenodd" clip-rule="evenodd"
        d="M17.849 14.396C18.579 13.096 19 11.598 19 10C19 5.029 14.971 1 10 1C5.029 1 1 5.029 1 10C1 14.971 5.029 19 10 19C11.598 19 13.096 18.579 14.396 17.849L19 19L17.849 14.396Z"
        stroke="#797C7B" stroke-width="1.5" stroke-linecap="round" stroke-linejoin="round" />
    <path
        d="M9.82311 10.323C9.92111 10.225 10.0791 10.225 10.1771 10.323C10.2751 10.421 10.2751 10.579 10.1771 10.677C10.0791 10.775 9.92111 10.775 9.82311 10.677C9.72611 10.579 9.72611 10.421 9.82311 10.323"
        stroke="#797C7B" stroke-width="1.5" stroke-linecap="round" stroke-linejoin="round" />
    <path
        d="M5.82311 10.323C5.92111 10.225 6.07911 10.225 6.17711 10.323C6.27511 10.421 6.27511 10.579 6.17711 10.677C6.07911 10.775 5.92111 10.775 5.82311 10.677C5.72611 10.579 5.72611 10.421 5.82311 10.323"
        stroke="#797C7B" stroke-width="1.5" stroke-linecap="round" stroke-linejoin="round" />
    <path
        d="M13.8231 10.323C13.9211 10.225 14.0791 10.225 14.1771 10.323C14.2751 10.421 14.2751 10.579 14.1771 10.677C14.0791 10.775 13.9211 10.775 13.8231 10.677C13.7261 10.579 13.7261 10.421 13.8231 10.323"
        stroke="#797C7B" stroke-width="1.5" stroke-linecap="round" stroke-linejoin="round" />
</svg>
