<svg width="10" height="10" viewBox="0 0 10 10" fill="none" xmlns="http://www.w3.org/2000/svg">
    <path
        d="M8.97067 3.13765L4.804 7.30432C4.74525 7.36307 4.66567 7.39599 4.58317 7.39599C4.58275 7.39599 4.58233 7.39599 4.58191 7.39599C4.49858 7.39557 4.419 7.36224 4.36025 7.30265L2.69358 5.61015C2.57233 5.48723 2.574 5.28932 2.69692 5.16808C2.81984 5.04724 3.01817 5.04849 3.139 5.17141L4.58442 6.63973L8.52858 2.69557C8.65066 2.57348 8.84858 2.57348 8.97067 2.69557C9.09275 2.81765 9.09275 3.01599 8.97067 3.13765ZM4.58317 5.72932C4.66317 5.72932 4.74317 5.6989 4.804 5.63765L7.304 3.13765C7.42608 3.01557 7.42608 2.81765 7.304 2.69557C7.18192 2.57348 6.984 2.57348 6.86191 2.69557L4.36191 5.19557C4.23983 5.31765 4.23983 5.51557 4.36191 5.63765C4.42316 5.6989 4.50317 5.72932 4.58317 5.72932ZM1.47233 5.17265C1.3515 5.04974 1.15359 5.04807 1.03025 5.16932C0.907336 5.29057 0.905665 5.48807 1.02691 5.61141L2.69358 7.30307C2.75442 7.36516 2.83525 7.39641 2.91608 7.39641C2.99525 7.39641 3.07441 7.3664 3.13525 7.3064C3.25816 7.18515 3.25984 6.98765 3.13859 6.86432L1.47233 5.17265Z"
        fill="#166000" />
</svg>
