<svg width="24" height="25" viewBox="0 0 24 25" fill="none" xmlns="http://www.w3.org/2000/svg">
    <path
        d="M3 12.5029C3.00035 12.3543 3.04283 12.2088 3.12246 12.0837C3.20209 11.9585 3.31556 11.8589 3.44952 11.7964L19.8953 4.06876C20.0388 4.00375 20.1985 3.98423 20.3532 4.01279C20.5079 4.04135 20.6504 4.11663 20.7616 4.22864C20.8729 4.34064 20.9476 4.48408 20.976 4.63988C21.0044 4.79569 20.985 4.9565 20.9204 5.10095L18.0917 11.7357L11.1297 11.7247V13.2812L18.1137 13.2812L20.9369 19.9215C20.9982 20.0651 21.0154 20.2239 20.986 20.3775C20.9567 20.531 20.8823 20.6721 20.7724 20.7826C20.6593 20.8918 20.5161 20.964 20.3614 20.9896C20.2068 21.0153 20.0481 20.9931 19.9063 20.9261L3.46048 13.1984C3.32614 13.1384 3.21153 13.0411 3.13 12.918C3.04847 12.7948 3.00338 12.6509 3 12.5029Z"
        fill="#002DE3" />
</svg>
